<svg xmlns="http://www.w3.org/2000/svg" width="83.638" height="73.113" viewBox="0 0 83.638 73.113">
  <g id="_312334" data-name="312334" transform="translate(1.442 1.547)">
    <path id="Path_3" data-name="Path 3" d="M43.5-1111.691a38.161,38.161,0,0,0-6.931,1.147c-.466.12-.926.233-1.021.252s-.176.051-.176.076c0,.094.473.107.788.025a9.2,9.2,0,0,1,2.722-.157,20.421,20.421,0,0,1,9.86,3.913,15.862,15.862,0,0,1,2.968,3,6.067,6.067,0,0,1,1.115,2.829,4.241,4.241,0,0,1-.529,2.615l-.321.661v.725a4.971,4.971,0,0,0,.088,1.04,4.52,4.52,0,0,0,.561,1.185c.095.107.082.126-.12.321-.12.12-3.125,2.879-6.679,6.137L39.349-1082l-4.9-4.253c-2.7-2.338-4.99-4.322-5.085-4.4l-.176-.151.284-1.147c.9-3.623,2.426-9.8,2.445-9.892s-.428-.372-1.808-1.191c-6.364-3.774-11.461-6.817-12.412-7.422a8.936,8.936,0,0,0-.832-.485c-.057-.013-2.268,1.978-4,3.6l-.422.4,3.32,3.043,5.255,4.813.29.271-.378,1.216c-.208.668-.428,1.386-.491,1.594-.233.762-.75,2.4-.8,2.546s-.284.208-3.043.926c-2.854.743-2.993.775-3.112.668-.063-.057-2.067-1.884-4.436-4.064l-4.316-3.951-.164.145c-2.375,2.161-3.843,3.528-3.869,3.6-.019.05.92,1.317,2.331,3.131,2.432,3.131,4.146,5.362,6.5,8.48a19.21,19.21,0,0,0,1.437,1.783c.082,0,.5-.069,2.067-.346l1.279-.227c.384-.063,1.027-.177,1.418-.246s1.033-.176,1.43-.246l1.449-.252,1.449-.252c.4-.069,1.065-.189,1.481-.258s.9-.157,1.071-.189l.315-.05.788.769c.781.769,5.992,5.834,6.445,6.269l.233.233-2.753,2.419-6.76,5.948c-2.2,1.934-5.248,4.612-6.767,5.954-5.626,4.946-7.731,6.792-9.148,8.046-.806.706-1.619,1.456-1.808,1.663a2.442,2.442,0,0,0-.649,2.6,4.146,4.146,0,0,0,.869,1.38c.378.435,5.683,5.305,6.212,5.7a6.882,6.882,0,0,0,1.84.914,3.46,3.46,0,0,0,1.229.145,2.978,2.978,0,0,0,1.852-.454c.4-.24.945-.762,9.174-8.714,1.424-1.374,3.081-2.974,3.686-3.56,1.071-1.033,1.84-1.771,7.4-7.151,3.963-3.837,5.437-5.242,5.481-5.236s5.135,4.958,8.915,8.669c.781.762,3.119,3.049,5.2,5.072s4.959,4.833,6.4,6.237c4.454,4.341,4.681,4.562,5.1,4.864a7.254,7.254,0,0,0,2.457,1.185,7.532,7.532,0,0,0,2.886.044,6.976,6.976,0,0,0,3.988-2.627,7.339,7.339,0,0,0,.964-2.016,5.016,5.016,0,0,0-1.518-4.921c-.41-.4-22.638-19.708-27.483-23.873-.832-.712-1.506-1.323-1.506-1.354s1.739-1.651,3.856-3.591,5.078-4.65,6.584-6.03l2.728-2.5.491.347a6.242,6.242,0,0,0,1.827.882,7.644,7.644,0,0,0,2.829-.025,3.747,3.747,0,0,1,1.922-.013c1.222.309,2.142,1.04,3.995,3.169l.756.869-.617.6a3.212,3.212,0,0,0-.825,1.052,1.8,1.8,0,0,0-.214,1.084,2.262,2.262,0,0,0,.176,1.071,3.761,3.761,0,0,0,1.9,1.991,3.39,3.39,0,0,0,1.676.372,2.96,2.96,0,0,0,1.72-.466c.321-.208,5.62-5.009,6.13-5.557a2.8,2.8,0,0,0,.271-3.371,4.222,4.222,0,0,0-1.588-1.468,3.129,3.129,0,0,0-1.657-.378,3.1,3.1,0,0,0-1.569.353l-.239.12-.158-.145a16.911,16.911,0,0,1-1.607-1.972c-.208-.315-.687-1.178-1.058-1.922a14.766,14.766,0,0,0-1.468-2.583,28.778,28.778,0,0,0-2.7-3.119c-.718-.662-3.2-2.987-3.743-3.5-.825-.781-5.236-4.9-5.607-5.236a19.474,19.474,0,0,0-2.325-1.789,20.121,20.121,0,0,0-8.953-3.219C47.458-1111.672,44.3-1111.747,43.5-1111.691Zm27.477,61.839a2.909,2.909,0,0,1,1.474,1.014,2.294,2.294,0,0,1,.5,1.563,1.682,1.682,0,0,1-.233,1.014A2.8,2.8,0,0,1,70.6-1044.7a2.951,2.951,0,0,1-1.934-.271,1.452,1.452,0,0,1-.92-.945,3.767,3.767,0,0,1,.63-3.446,1.766,1.766,0,0,1,1.2-.6A2.962,2.962,0,0,1,70.972-1049.851Z" transform="translate(-0.696 1111.71)" fill="none" stroke="#fff" stroke-width="3"/>
  </g>
</svg>
