<svg xmlns="http://www.w3.org/2000/svg" width="140.164" height="132.818" viewBox="0 0 140.164 132.818">
  <g id="gears-set-svgrepo-com" transform="translate(-3.593 26.455) rotate(-19)">
    <path id="Path_72" data-name="Path 72" d="M48.539,79.816l11.046-6.846-4.059-6.547a27.946,27.946,0,0,0,5.183-7.245l7.516,1.759,2.955-12.662-7.513-1.759a27.674,27.674,0,0,0-1.441-8.776l6.566-4.072L61.94,22.628,55.376,26.7a27.6,27.6,0,0,0-7.225-5.18L49.912,14,37.254,11.035,35.5,18.53a28.087,28.087,0,0,0-8.795,1.433l-4.059-6.54L11.6,20.274l4.056,6.536a27.976,27.976,0,0,0-5.184,7.244L2.968,32.294,0,44.956,7.517,46.72a27.487,27.487,0,0,0,1.441,8.771L2.391,59.562l6.847,11.05,6.571-4.072a27.722,27.722,0,0,0,7.217,5.183l-1.761,7.518,12.659,2.965,1.758-7.5a28.081,28.081,0,0,0,8.795-1.435ZM20.9,43.178A15.023,15.023,0,0,1,35.572,31.522a15.237,15.237,0,0,1,3.464.4A15.093,15.093,0,0,1,35.61,61.709a15.3,15.3,0,0,1-3.464-.4A15.078,15.078,0,0,1,20.9,43.178ZM92.476,88.207l2.863-1.774-5.132-8.29-2.873,1.778a16.437,16.437,0,0,0-2.643-1.9l.772-3.281-9.493-2.228-.761,3.253a16.468,16.468,0,0,0-3.244.524L70.2,73.453,61.921,78.6l1.733,2.786a17.132,17.132,0,0,0-1.9,2.7l-3.237-.752-2.228,9.49,3.275.765a16.477,16.477,0,0,0,.524,3.218l-2.853,1.771,5.141,8.284,2.85-1.771a16.411,16.411,0,0,0,2.653,1.9l-.768,3.275,9.493,2.222.758-3.25a16.706,16.706,0,0,0,3.244-.521l1.758,2.834,8.284-5.138-1.733-2.793a16.291,16.291,0,0,0,1.9-2.7l3.237.755,2.228-9.493L93,91.417A16.4,16.4,0,0,0,92.476,88.207Zm-9.29,5.913a7.12,7.12,0,0,1-8.512,5.275,7.087,7.087,0,0,1,1.6-13.984A7.349,7.349,0,0,1,77.9,85.6,7.108,7.108,0,0,1,83.186,94.12Zm24.185-37.643,4.449,1.04,1.486-6.327-4.437-1.038a14.833,14.833,0,0,0-.87-5.273l3.879-2.409-3.431-5.521-3.876,2.4a15.091,15.091,0,0,0-4.342-3.117L101.27,31.8l-6.329-1.485-1.035,4.426c-.077,0-.159-.012-.238-.012a15.21,15.21,0,0,0-5.062.862l-2.378-3.845L80.7,35.166l2.405,3.888A14.975,14.975,0,0,0,80,43.393l-4.453-1.041L74.07,48.68l4.43,1.036a14.85,14.85,0,0,0,.869,5.275L75.5,57.4l3.431,5.518,3.869-2.4a15.146,15.146,0,0,0,4.342,3.118L86.105,68.07l6.322,1.486,1.041-4.431c.079,0,.159.012.235.012a15.262,15.262,0,0,0,5.059-.86l2.384,3.85,5.519-3.434-2.406-3.88A15.006,15.006,0,0,0,107.371,56.477Zm-22.16-8.525a8.665,8.665,0,0,1,8.462-6.723,8.861,8.861,0,0,1,2,.23,8.7,8.7,0,0,1,6.487,10.459,8.705,8.705,0,0,1-15.869,2.6A8.635,8.635,0,0,1,85.211,47.951Z"/>
  </g>
</svg>
