<svg xmlns="http://www.w3.org/2000/svg" width="578.915" height="575.996" viewBox="0 0 578.915 575.996">
  <g id="house-search-svgrepo-com" transform="matrix(0.996, -0.087, 0.087, 0.996, -0.135, 45.064)">
    <g id="Group_152" data-name="Group 152" transform="translate(0 1.538)">
      <g id="Group_151" data-name="Group 151">
        <path id="Path_19" data-name="Path 19" d="M349.887,1.538c-101.871,0-184.747,82.879-184.747,184.747a183.631,183.631,0,0,0,26.692,95.569l-184.4,184.4a25.425,25.425,0,0,0,0,35.914l23.361,23.361a25.425,25.425,0,0,0,35.913,0l183.66-183.661a183.667,183.667,0,0,0,99.525,29.161c101.871,0,184.747-82.879,184.747-184.747S451.756,1.538,349.887,1.538ZM51.1,509.935a3.333,3.333,0,0,1-4.716,0L23.024,486.574a3.335,3.335,0,0,1,0-4.717l181.54-181.539.32.32A186.435,186.435,0,0,0,232.33,328.7ZM349.887,348.974c-89.707,0-162.688-72.982-162.688-162.688S260.18,23.6,349.887,23.6,512.575,96.579,512.575,186.285,439.593,348.974,349.887,348.974Z" transform="translate(0 -1.538)" fill="rgba(54,54,54,0.7)"/>
      </g>
    </g>
    <g id="Group_154" data-name="Group 154" transform="translate(235.505 66.614)">
      <g id="Group_153" data-name="Group 153">
        <path id="Path_20" data-name="Path 20" d="M460.192,160.288l-108.2-93.736a11.03,11.03,0,0,0-14.444,0l-108.2,93.737a11.03,11.03,0,0,0,7.222,19.367h20.662v88.121a11.03,11.03,0,0,0,11.03,11.03H421.278a11.03,11.03,0,0,0,11.03-11.03V179.656h20.662a11.031,11.031,0,0,0,7.223-19.368ZM421.279,157.6a11.03,11.03,0,0,0-11.03,11.03v88.121H279.287V168.626a11.03,11.03,0,0,0-11.03-11.03h-2.114l78.626-68.115L423.394,157.6Z" transform="translate(-225.535 -63.859)" fill="rgba(54,54,54,0.7)"/>
      </g>
    </g>
    <g id="Group_156" data-name="Group 156" transform="translate(300.804 226.544)">
      <g id="Group_155" data-name="Group 155">
        <path id="Path_21" data-name="Path 21" d="M348.732,217.018H299.1a11.03,11.03,0,1,0,0,22.06h49.633a11.03,11.03,0,0,0,0-22.06Z" transform="translate(-288.069 -217.018)" fill="rgba(54,54,54,0.7)"/>
      </g>
    </g>
    <g id="Group_158" data-name="Group 158" transform="translate(383.526 226.544)">
      <g id="Group_157" data-name="Group 157">
        <path id="Path_22" data-name="Path 22" d="M380.525,217.018h-2.206a11.03,11.03,0,0,0,0,22.06h2.206a11.03,11.03,0,0,0,0-22.06Z" transform="translate(-367.289 -217.018)" fill="rgba(54,54,54,0.7)"/>
      </g>
    </g>
  </g>
</svg>
