<?xml version="1.0" encoding="utf-8"?>
<!-- Generator: Adobe Illustrator 25.2.0, SVG Export Plug-In . SVG Version: 6.00 Build 0)  -->
<svg version="1.1" id="Layer_1" xmlns="http://www.w3.org/2000/svg" xmlns:xlink="http://www.w3.org/1999/xlink" x="0px" y="0px"
	 viewBox="0 0 2000 2000" style="enable-background:new 0 0 2000 2000;" xml:space="preserve">
<style type="text/css">
	.st0{fill:#FFFFFF;}
</style>
<rect width="2000" height="2000"/>
<g>
	<g>
		<g>
			<g>
				<polygon class="st0" points="826.85,1097.36 1164.53,776.66 1140.36,776.66 826.85,1074.45 				"/>
			</g>
		</g>
		<g>
			<g>
				<path class="st0" d="M1044.31,853.46c-5.81-5.2-12.34-9.69-19.48-13.29c-15.33-7.69-33.16-11.62-53.03-11.62h-71.41v176.3
					l11.07-10.46V839.63h60.33c18.16,0,34.21,3.49,48.05,10.46c9.63,4.87,17.6,11.24,24.13,18.93l8.14-7.69L1044.31,853.46z
					 M1044.47,816.05c-20.59-10.3-44.12-15.44-70.57-15.44H865.35v237.41l11.07-10.46V811.67h97.48c24.63,0,46.72,4.82,65.65,14.23
					c7.31,3.71,14.06,8.03,20.2,12.95l8.3,7.36l7.97-7.53C1067.11,829.66,1056.6,822.08,1044.47,816.05z"/>
			</g>
			<g>
				<path class="st0" d="M1109.4,924.76c0,24.58-5.7,46.28-17.05,65.04c-11.35,18.82-27.29,33.38-47.88,43.67
					c-20.59,10.24-44.12,15.39-70.57,15.39h-73.23l41.07-39.02h30.06c18.16,0,34.21-3.49,48.05-10.41
					c13.84-6.97,24.47-16.94,31.94-29.83c7.42-12.9,11.13-27.84,11.13-44.84c0-9.52-1.16-18.43-3.54-26.62l35.65-33.82
					C1104.59,881.97,1109.4,902.12,1109.4,924.76z"/>
			</g>
		</g>
		<g>
			<rect x="826.85" y="797.85" class="st0" width="346.31" height="5.5"/>
		</g>
		<g>
			<rect x="862.62" y="759.69" class="st0" width="5.5" height="345.38"/>
		</g>
	</g>
	<g>
		<path class="st0" d="M485.39,1155.44h36.57c8.93,0,16.85,1.73,23.79,5.2c6.93,3.46,12.31,8.37,16.13,14.7
			c3.83,6.33,5.74,13.64,5.74,21.93c0,8.29-1.91,15.59-5.74,21.93c-3.83,6.34-9.2,11.24-16.13,14.7c-6.94,3.46-14.86,5.2-23.79,5.2
			h-36.57V1155.44z M521.25,1225.96c6.13,0,11.53-1.18,16.19-3.53c4.66-2.35,8.25-5.69,10.76-10.04c2.5-4.34,3.76-9.38,3.76-15.12
			c0-5.74-1.26-10.78-3.76-15.13c-2.51-4.34-6.1-7.68-10.76-10.04c-4.66-2.34-10.06-3.53-16.19-3.53h-20.32v57.38H521.25z"/>
		<path class="st0" d="M655.61,1239.11l-17.09-24.51c-0.71,0.08-1.79,0.12-3.23,0.12h-18.88v24.38h-15.54v-83.67h34.42
			c7.25,0,13.57,1.19,18.94,3.59c5.39,2.39,9.5,5.82,12.38,10.28c2.87,4.46,4.3,9.76,4.3,15.89c0,6.3-1.54,11.72-4.6,16.26
			c-3.07,4.55-7.47,7.94-13.21,10.16l19.24,27.49H655.61z M649.99,1172.89c-3.51-2.87-8.65-4.31-15.42-4.31h-18.17v33.36h18.17
			c6.77,0,11.91-1.45,15.42-4.36c3.5-2.91,5.26-7.04,5.26-12.38C655.25,1179.86,653.49,1175.76,649.99,1172.89z"/>
		<path class="st0" d="M721,1234.75c-6.86-3.7-12.24-8.84-16.14-15.42c-3.9-6.58-5.85-13.93-5.85-22.06
			c0-8.13,1.95-15.48,5.85-22.06c3.9-6.58,9.28-11.72,16.14-15.42c6.85-3.71,14.54-5.56,23.07-5.56c8.53,0,16.22,1.85,23.07,5.56
			c6.85,3.7,12.23,8.83,16.14,15.36c3.9,6.54,5.85,13.91,5.85,22.12c0,8.2-1.95,15.58-5.85,22.12c-3.91,6.53-9.29,11.65-16.14,15.36
			c-6.85,3.7-14.54,5.56-23.07,5.56C735.54,1240.31,727.85,1238.45,721,1234.75z M759.13,1222.92c4.46-2.51,7.97-6.02,10.52-10.52
			c2.55-4.5,3.83-9.54,3.83-15.12c0-5.58-1.28-10.62-3.83-15.13c-2.55-4.49-6.06-8-10.52-10.52c-4.47-2.51-9.49-3.76-15.06-3.76
			c-5.58,0-10.6,1.25-15.06,3.76c-4.46,2.51-7.97,6.02-10.52,10.52c-2.55,4.51-3.83,9.55-3.83,15.13c0,5.58,1.28,10.62,3.83,15.12
			c2.55,4.5,6.05,8.01,10.52,10.52c4.46,2.5,9.49,3.76,15.06,3.76C749.65,1226.68,754.66,1225.42,759.13,1222.92z"/>
		<path class="st0" d="M892.65,1203.19c2.71,3.55,4.06,7.95,4.06,13.21c0,7.25-2.79,12.84-8.37,16.79
			c-5.58,3.94-13.71,5.92-24.38,5.92h-41.6v-83.67h39.2c9.89,0,17.49,1.93,22.84,5.79c5.33,3.87,8,9.19,8,15.96
			c0,4.14-0.95,7.81-2.87,10.99c-1.91,3.19-4.55,5.66-7.89,7.41C886.27,1197.11,889.94,1199.65,892.65,1203.19z M837.91,1167.63
			v23.07h21.99c5.42,0,9.58-0.98,12.49-2.93c2.9-1.95,4.36-4.8,4.36-8.55c0-3.83-1.46-6.71-4.36-8.67
			c-2.91-1.95-7.08-2.93-12.49-2.93H837.91z M881.06,1214.84c0-8.04-6.02-12.07-18.05-12.07h-25.1v24.15H863
			C875.03,1226.92,881.06,1222.89,881.06,1214.84z"/>
		<path class="st0" d="M1004.42,1155.44v83.67h-12.79l-46.14-56.66v56.66h-15.42v-83.67h12.79l46.14,56.66v-56.66H1004.42z"/>
		<path class="st0" d="M1059.64,1234.75c-6.86-3.7-12.24-8.84-16.14-15.42c-3.9-6.58-5.85-13.93-5.85-22.06
			c0-8.13,1.95-15.48,5.85-22.06c3.9-6.58,9.28-11.72,16.14-15.42c6.85-3.71,14.54-5.56,23.07-5.56c8.53,0,16.22,1.85,23.07,5.56
			c6.85,3.7,12.23,8.83,16.14,15.36c3.9,6.54,5.85,13.91,5.85,22.12c0,8.2-1.95,15.58-5.85,22.12c-3.91,6.53-9.29,11.65-16.14,15.36
			c-6.85,3.7-14.54,5.56-23.07,5.56C1074.19,1240.31,1066.5,1238.45,1059.64,1234.75z M1097.78,1222.92
			c4.46-2.51,7.97-6.02,10.52-10.52c2.55-4.5,3.83-9.54,3.83-15.12c0-5.58-1.28-10.62-3.83-15.13c-2.55-4.49-6.06-8-10.52-10.52
			c-4.47-2.51-9.49-3.76-15.06-3.76s-10.6,1.25-15.06,3.76c-4.46,2.51-7.97,6.02-10.52,10.52c-2.55,4.51-3.83,9.55-3.83,15.13
			c0,5.58,1.28,10.62,3.83,15.12c2.55,4.5,6.05,8.01,10.52,10.52c4.46,2.5,9.49,3.76,15.06,3.76S1093.31,1225.42,1097.78,1222.92z"
			/>
		<path class="st0" d="M1168.24,1237.56c-6.02-1.84-10.78-4.26-14.28-7.29l5.38-12.08c3.43,2.71,7.63,4.92,12.61,6.64
			c4.99,1.71,9.99,2.57,15,2.57c6.21,0,10.86-1,13.93-2.99c3.07-1.99,4.6-4.62,4.6-7.89c0-2.39-0.85-4.36-2.57-5.92
			c-1.72-1.55-3.89-2.77-6.51-3.65c-2.63-0.88-6.22-1.87-10.76-2.99c-6.38-1.51-11.53-3.03-15.48-4.54
			c-3.94-1.51-7.33-3.89-10.16-7.11c-2.83-3.23-4.24-7.59-4.24-13.09c0-4.62,1.25-8.83,3.76-12.61c2.51-3.79,6.3-6.8,11.35-9.03
			c5.06-2.23,11.26-3.35,18.59-3.35c5.1,0,10.12,0.64,15.06,1.91c4.94,1.28,9.2,3.11,12.79,5.5l-4.9,12.07
			c-3.67-2.15-7.5-3.78-11.48-4.9c-3.99-1.11-7.85-1.67-11.6-1.67c-6.13,0-10.69,1.04-13.68,3.1c-2.99,2.07-4.49,4.82-4.49,8.25
			c0,2.39,0.86,4.34,2.57,5.85c1.71,1.52,3.89,2.71,6.51,3.59s6.21,1.87,10.76,2.99c6.21,1.44,11.32,2.93,15.3,4.49
			c3.99,1.55,7.39,3.93,10.22,7.11c2.83,3.19,4.25,7.49,4.25,12.91c0,4.62-1.26,8.8-3.76,12.55c-2.51,3.75-6.32,6.74-11.42,8.97
			c-5.1,2.23-11.32,3.35-18.65,3.35C1180.49,1240.31,1174.26,1239.39,1168.24,1237.56z"/>
		<path class="st0" d="M1268.72,1168.58h-27.73v-13.14h71.01v13.14h-27.73v70.53h-15.54V1168.58z"/>
		<path class="st0" d="M1390.52,1219.74h-41.84l-8.25,19.37h-16.02l37.66-83.67h15.3l37.78,83.67h-16.26L1390.52,1219.74z
			 M1385.38,1207.55l-15.78-36.57l-15.66,36.57H1385.38z"/>
		<path class="st0" d="M1514.61,1155.44l-36.46,83.67h-15.3l-36.58-83.67h16.85l27.86,64.55l28.09-64.55H1514.61z"/>
	</g>
</g>
</svg>
