<svg xmlns="http://www.w3.org/2000/svg" width="88.144" height="97.362" viewBox="0 0 88.144 97.362">
  <path id="Path_74" data-name="Path 74" d="M47.322,2.25A36.523,36.523,0,0,0,16.781,58.793L3.756,81.354a3.778,3.778,0,0,0,4,5.6l13.166-2.588,4.341,12.7a3.778,3.778,0,0,0,6.846.666L45.1,75.217q1.1.066,2.219.066t2.219-.066L62.535,97.723a3.778,3.778,0,0,0,6.849-.674L73.7,84.327l13.177,2.62a3.777,3.777,0,0,0,4.008-5.594L77.863,58.793A36.523,36.523,0,0,0,47.322,2.25ZM18.36,38.767A28.962,28.962,0,1,1,47.322,67.729,28.962,28.962,0,0,1,18.36,38.767ZM37.167,73.853A36.483,36.483,0,0,1,21.921,65L14.455,77.933,22.7,76.312A3.777,3.777,0,0,1,27,78.8l2.719,7.951ZM64.91,86.726,57.478,73.853A36.486,36.486,0,0,0,72.723,65l7.453,12.91-8.249-1.64a3.777,3.777,0,0,0-4.314,2.491Z" transform="translate(-3.25 -2.25)" fill-rule="evenodd"/>
</svg>
