<?xml version="1.0" encoding="UTF-8" standalone="no"?>
<!-- Created with Keyshape -->
<svg xmlns="http://www.w3.org/2000/svg" id="Family-business-01" shape-rendering="geometricPrecision" text-rendering="geometricPrecision" viewBox="10 30 180 130" style="white-space: pre;">
    <defs>
        <mask id="Mask-1" style="mask-type: alpha;">
            <g id="Shape-Layer-1-2" transform="translate(100,100)">
                <g id="Shape-1-2" opacity="1">
                    <path id="Path-1-3" fill="none" d="M-40.167,6.5C-40.167,6.5,-27.833,-9.167,-27.833,-9.167C-27.833,-9.167,-22.333,-4.667,-22.333,-4.667C-22.333,-4.667,-8.25,-21.833,-8.25,-21.833C-8.25,-21.833,7.333,-11,7.333,-11C7.333,-11,25.667,-32.917,25.667,-32.917" stroke="#ffffff" stroke-opacity="1" stroke-width="13" stroke-miterlimit="4" stroke-linecap="butt" stroke-linejoin="miter" stroke-dasharray="96.8023" stroke-dashoffset="96.8" style="animation: 3s linear both Path-1-3_do;"/>
                </g>
            </g>
        </mask>
    </defs>
    <style>
@keyframes a0_v { 0% { visibility: visible; animation-timing-function: steps(1); } 100% { visibility: visible; animation-timing-function: steps(1); } }
@keyframes Path-1-3_do { 0% { stroke-dashoffset: 96.8px; } 66.6667% { stroke-dashoffset: 0px; } 100% { stroke-dashoffset: 0px; } }
@keyframes Vector-2-2_t { 0% { transform: rotate(0deg) scale(0,0) translate(-24.063px,9.171px); } 4.1666% { transform: rotate(0deg) scale(0.3,0.3) translate(-24.063px,9.171px); } 12.5% { transform: rotate(0deg) scale(0.393333,0.393333) translate(-24.063px,9.171px); } 16.6666% { transform: rotate(90.002deg) scale(0.44,0.44) translate(-24.063px,9.171px); } 25% { transform: rotate(0.004deg) scale(0.533333,0.533333) translate(-24.063px,9.171px); } 33.3333% { transform: rotate(0.004deg) scale(0.626667,0.626667) translate(-24.063px,9.171px); } 41.6666% { transform: rotate(86.641deg) scale(0.72,0.72) translate(-24.063px,9.171px); } 43.0666% { transform: rotate(95.648deg) scale(0.73568,0.73568) translate(-24.063px,9.171px); } 47.2333% { transform: rotate(98.434deg) scale(0.782347,0.782347) translate(-24.063px,9.171px); } 54.1666% { transform: rotate(0deg) scale(0.86,0.86) translate(-24.063px,9.171px); } 66.6666% { transform: rotate(0deg) scale(1,1) translate(-24.063px,9.171px); } 100% { transform: rotate(0deg) scale(1,1) translate(-24.063px,9.171px); } }
@keyframes Vector-2-2_v { 0% { visibility: visible; animation-timing-function: steps(1); } 66.6667% { visibility: hidden; animation-timing-function: steps(1); } 100% { visibility: hidden; animation-timing-function: steps(1); } }
@keyframes Vector-2-2_mo { 0% { offset-distance: 0%; } 2.7667% { offset-distance: 0%; } 12.5% { offset-distance: 15.559%; } 13.9% { offset-distance: 19.612%; } 16.6667% { offset-distance: 22.651%; } 19.4333% { offset-distance: 28.069%; } 25% { offset-distance: 31.828%; } 33.3333% { offset-distance: 48.786%; } 41.6667% { offset-distance: 54.885%; } 43.0667% { offset-distance: 57.831%; } 47.2333% { offset-distance: 67.396%; } 54.1667% { offset-distance: 79.125%; } 66.6667% { offset-distance: 100%; } 100% { offset-distance: 100%; } }
@keyframes Vector-3-2_t { 0% { transform: translate(138.124px,52.153px) scale(1,1) translate(-38.23px,26.671px); } 100% { transform: translate(138.124px,52.153px) scale(1,1) translate(-38.23px,26.671px); } }
@keyframes Vector-3-2_v { 0% { visibility: hidden; animation-timing-function: steps(1); } 66.6667% { visibility: visible; animation-timing-function: steps(1); } 100% { visibility: visible; animation-timing-function: steps(1); } }
    </style>
    <g id="Vector" transform="translate(37.028,121.963)">
        <g id="Vector-4" opacity="1">
            <path id="Path-1" fill="#000000" d="M-10.658,-0.003C-10.658,-7.033,-4.748,-12.673,2.372,-12.233C2.372,-12.233,2.381,-12.233,2.381,-12.233C8.481,-11.853,13.451,-6.883,13.831,-0.783C14.271,6.347,8.632,12.257,1.602,12.257C1.382,12.257,1.152,12.247,0.932,12.237C0.932,12.237,-13.698,12.237,-13.698,12.237C-13.868,12.237,-13.918,12.007,-13.758,11.947C-11.958,11.197,-10.658,9.167,-10.658,6.777C-10.658,6.777,-10.658,0.227,-10.658,0.227C-10.658,0.147,-10.658,0.077,-10.658,-0.003Z" fill-opacity="1" fill-rule="nonzero"/>
        </g>
    </g>
    <g id="Vector-5" transform="translate(38.61,143.925)">
        <g id="Vector-6" opacity="1">
            <path id="Path-1-4" fill="#000000" d="M-7.09,-8.555C-7.09,-8.555,7.1,-8.555,7.1,-8.555C7.1,-8.555,7.09,-8.555,7.09,-8.555C13.45,-8.555,18.61,-3.395,18.61,2.965C18.61,2.965,18.61,8.555,18.61,8.555C18.61,8.555,-18.61,8.555,-18.61,8.555C-18.61,8.555,-18.61,2.965,-18.61,2.965C-18.61,-3.395,-13.45,-8.555,-7.09,-8.555Z" fill-opacity="1" fill-rule="nonzero"/>
        </g>
    </g>
    <g id="Vector-7" transform="translate(66.52,123.89)">
        <g id="Vector-8" opacity="1">
            <path id="Path-1-5" fill="#000000" d="M-9.12,0C-9.12,-5.04,-5.03,-9.12,0,-9.12C5.04,-9.12,9.12,-5.04,9.12,0C9.12,5.04,5.04,9.12,0,9.12C-5.04,9.12,-9.12,5.04,-9.12,0Z" fill-opacity="1" fill-rule="nonzero"/>
        </g>
    </g>
    <g id="Subtract" transform="translate(67.829,140.4)">
        <g id="Subtract-2" opacity="1">
            <path id="Path-1-6" fill="#000000" d="M-8.608,5.52C-8.608,5.52,-8.608,6,-8.608,6C-8.608,6,13.171,6,13.171,6C13.171,6,13.171,2.079,13.171,2.079C13.171,-2.385,9.156,-6,4.198,-6C4.198,-6,-6.855,-6,-6.855,-6C-9.319,-6,-11.55,-5.107,-13.171,-3.661C-10.399,-1.557,-8.608,1.773,-8.608,5.52Z" fill-opacity="1" fill-rule="nonzero"/>
        </g>
    </g>
    <g id="Vector-9" transform="translate(161.57,121.74)">
        <g id="Vector-10" opacity="1">
            <path id="Path-1-7" fill="#000000" d="M-12.34,0C-12.34,-6.81,-6.82,-12.34,0,-12.34C6.81,-12.34,12.34,-6.81,12.34,0C12.34,6.81,6.81,12.34,0,12.34C-6.81,12.34,-12.34,6.81,-12.34,0Z" fill-opacity="1" fill-rule="nonzero"/>
        </g>
    </g>
    <g id="Vector-11" transform="translate(161.565,143.855)">
        <g id="Vector-12" opacity="1">
            <path id="Path-1-8" fill="#000000" d="M-7.145,-8.615C-7.145,-8.615,7.145,-8.615,7.145,-8.615C13.555,-8.615,18.745,-3.425,18.745,2.985C18.745,2.985,18.745,8.615,18.745,8.615C18.745,8.615,-18.745,8.615,-18.745,8.615C-18.745,8.615,-18.745,2.985,-18.745,2.985C-18.745,-3.425,-13.555,-8.615,-7.145,-8.615Z" fill-opacity="1" fill-rule="nonzero"/>
        </g>
    </g>
    <g id="Vector-13" transform="translate(134.804,123.931)">
        <g id="Vector-14" opacity="1">
            <path id="Path-1-9" fill="#000000" d="M7.946,0.169C7.946,0.169,7.946,5.049,7.946,5.049C7.946,5.049,7.936,5.059,7.936,5.059C7.936,6.839,8.906,8.349,10.256,8.909C10.376,8.959,10.346,9.129,10.216,9.129C10.216,9.129,-0.694,9.129,-0.694,9.129C-0.854,9.139,-1.024,9.139,-1.194,9.139C-6.434,9.139,-10.644,4.729,-10.314,-0.581C-10.024,-5.131,-6.324,-8.841,-1.774,-9.121C3.536,-9.451,7.946,-5.241,7.946,-0.001C7.946,0.049,7.946,0.109,7.946,0.169Z" fill-opacity="1" fill-rule="nonzero"/>
        </g>
    </g>
    <g id="Subtract-3" transform="translate(132.171,140.4)">
        <g id="Subtract-4" opacity="1">
            <path id="Path-1-10" fill="#000000" d="M8.608,5.52C8.608,5.52,8.608,6,8.608,6C8.608,6,-13.171,6,-13.171,6C-13.171,6,-13.171,2.079,-13.171,2.079C-13.171,-2.385,-9.156,-6,-4.198,-6C-4.198,-6,6.855,-6,6.855,-6C9.319,-6,11.55,-5.107,13.171,-3.661C10.399,-1.557,8.608,1.773,8.608,5.52Z" fill-opacity="1" fill-rule="nonzero"/>
        </g>
    </g>
    <g id="Vector-15" transform="translate(99.899,77)">
        <g id="Vector-16" opacity="1">
            <path id="Path-1-11" fill="#000000" d="M-43.764,-30C-43.764,-30,43.754,-30,43.754,-30C43.754,-30,43.764,-30,43.764,-30C47.149,-30,49.899,-27.132,49.899,-23.601C49.899,-23.601,49.899,28.566,49.899,28.566C48.475,28.82,47.158,29.229,45.978,29.785C45.978,29.785,45.978,-23.601,45.978,-23.601C45.978,-24.967,44.983,-26.079,43.764,-26.079C43.764,-26.079,-43.754,-26.079,-43.754,-26.079C-44.983,-26.079,-45.978,-24.967,-45.978,-23.601C-45.978,-23.601,-45.978,30,-45.978,30C-47.178,29.61,-48.494,29.356,-49.899,29.249C-49.899,29.249,-49.899,-23.601,-49.899,-23.601C-49.899,-27.132,-47.149,-30,-43.764,-30Z" fill-opacity="1" fill-rule="nonzero"/>
        </g>
    </g>
    <g visibility="visible" mask="url(#Mask-1)" style="animation: 3s linear forwards a0_v;">
        <g id="Vector-2" transform="translate(99.894,78.824)">
            <g id="Vector-3" opacity="1">
                <path id="Path-1-2" fill="#ff432a" d="M-8.223,3.556C-8.223,3.556,8.096,16.89,8.096,16.89C8.096,16.89,28.23,-5.838,28.23,-5.838C28.23,-5.838,19.538,-12.744,19.538,-12.744C19.538,-12.744,6.253,4.843,6.253,4.843C6.253,4.843,-8.779,-6.696,-8.779,-6.696C-8.779,-6.696,-22.104,11.788,-22.104,11.788C-22.104,11.788,-27.566,6.648,-27.566,6.648C-27.566,6.648,-40.072,23.757,-40.072,23.757C-40.072,23.757,-36.365,26.742,-36.365,26.742C-36.365,26.742,-28.542,16.392,-28.542,16.392C-28.542,16.392,-21.548,22.089,-21.548,22.089C-21.548,22.089,-8.223,3.556,-8.223,3.556Z" fill-opacity="1" fill-rule="nonzero"/>
            </g>
        </g>
    </g>
    <g id="Vector-2-2" visibility="visible" style="transform: scale(0,0) translate(-24.063px,9.171px); animation: 3s linear both Vector-2-2_t, 3s linear forwards Vector-2-2_v, 3s linear both Vector-2-2_mo; offset-path: path('M61.957,104.153L61.957,104.153C61.957,104.153,69.402,93.625,69.402,93.625C69.402,93.625,72.096,91.618,72.096,91.618C72.096,91.618,74.124,93.111,74.124,93.111C74.124,93.111,78.497,94.129,78.497,94.129C78.497,94.129,80.38,91.647,80.38,91.647C80.38,91.647,89.689,81.118,89.689,81.118C89.689,81.118,94.533,79.675,94.533,79.675C94.533,79.675,96.71,80.779,96.71,80.779C96.71,80.779,103.24,85.274,103.24,85.274C103.24,85.274,112.618,82.718,112.618,82.718C112.618,82.718,123.957,69.653,123.957,69.653L123.957,69.653'); offset-rotate: 0deg;">
        <g id="Vector-17" opacity="1">
            <path id="Path-1-12" fill="#ff432a" d="M28.23,-5.838C28.23,-5.838,40.072,3.273,40.072,3.273C40.072,3.273,38.394,-26.742,38.394,-26.742C38.394,-26.742,9.52,-20.694,9.52,-20.694C9.52,-20.694,19.538,-12.744,19.538,-12.744C19.538,-12.744,28.23,-5.838,28.23,-5.838Z" fill-opacity="1" fill-rule="nonzero"/>
        </g>
    </g>
    <g id="Vector-3-2" visibility="hidden" transform="translate(138.124,52.153) translate(-38.23,26.671)" style="animation: 3s linear both Vector-3-2_t, 3s linear forwards Vector-3-2_v;">
        <g id="Vector-18" opacity="1">
            <path id="Path-1-13" fill="#ff432a" d="M28.23,-5.838C28.23,-5.838,40.072,3.273,40.072,3.273C40.072,3.273,38.394,-26.742,38.394,-26.742C38.394,-26.742,9.52,-20.694,9.52,-20.694C9.52,-20.694,19.538,-12.744,19.538,-12.744C19.538,-12.744,28.23,-5.838,28.23,-5.838Z" fill-opacity="1" fill-rule="nonzero"/>
        </g>
    </g>
</svg>
