<svg xmlns="http://www.w3.org/2000/svg" width="97.172" height="82.072" viewBox="0 0 97.172 82.072">
  <path id="chat-svgrepo-com" d="M88.146,50.07H77.74V33.387A10.323,10.323,0,0,0,67.429,23.076H10.31A10.322,10.322,0,0,0,0,33.387V64.6A10.322,10.322,0,0,0,10.31,74.914h7.5V85.707A3.244,3.244,0,0,0,23.351,88l9.036-9.038v5.674a9.036,9.036,0,0,0,9.026,9.027H66.528L77.06,104.2A3.244,3.244,0,0,0,82.6,101.9v-8.24h5.549a9.036,9.036,0,0,0,9.025-9.027V59.1A9.036,9.036,0,0,0,88.146,50.07ZM21.056,68.426H10.31A3.827,3.827,0,0,1,6.488,64.6V33.387a3.827,3.827,0,0,1,3.822-3.823h57.12a3.827,3.827,0,0,1,3.823,3.823V64.6a3.827,3.827,0,0,1-3.823,3.823H35.091a3.246,3.246,0,0,0-2.294.95l-8.5,8.5v-6.2A3.244,3.244,0,0,0,21.056,68.426Zm69.628,16.21a2.541,2.541,0,0,1-2.537,2.539H79.354a3.244,3.244,0,0,0-3.244,3.244v3.652l-5.945-5.945a3.242,3.242,0,0,0-2.294-.95H41.412a2.542,2.542,0,0,1-2.538-2.539V74.914H67.429A10.323,10.323,0,0,0,77.74,64.6V56.558H88.146A2.541,2.541,0,0,1,90.684,59.1Z" transform="translate(0 -23.076)"/>
</svg>
