<svg xmlns="http://www.w3.org/2000/svg" width="153.741" height="117.128" viewBox="0 0 153.741 117.128">
  <g id="project-work-icon" transform="translate(0.005)">
    <path id="Path_4" data-name="Path 4" d="M144.678,44.3l3.753,3.753a2.545,2.545,0,0,1,0,3.591L145.4,54.673a20.22,20.22,0,0,1,1.877,5H151.2a2.542,2.542,0,0,1,2.54,2.54v5.3a2.542,2.542,0,0,1-2.54,2.54h-4.279a20.1,20.1,0,0,1-2.214,4.854l2.777,2.765a2.545,2.545,0,0,1,0,3.591l-3.753,3.753a2.545,2.545,0,0,1-3.591,0L137.109,82a19.56,19.56,0,0,1-5,1.877V87.79a2.542,2.542,0,0,1-2.54,2.54h-5.3a2.542,2.542,0,0,1-2.54-2.54V83.511a20.1,20.1,0,0,1-4.854-2.214L114.1,84.074a2.545,2.545,0,0,1-3.591,0l-3.753-3.753a2.545,2.545,0,0,1,0-3.591l3.028-3.028a19.736,19.736,0,0,1-1.877-5h-3.916a2.542,2.542,0,0,1-2.54-2.54v-5.3a2.542,2.542,0,0,1,2.54-2.54h4.279a20.1,20.1,0,0,1,2.214-4.854l-2.765-2.765a2.545,2.545,0,0,1,0-3.591l3.753-3.753a2.545,2.545,0,0,1,3.591,0l3.028,3.028a19.735,19.735,0,0,1,5-1.877V40.586a2.542,2.542,0,0,1,2.54-2.54h5.3a2.542,2.542,0,0,1,2.54,2.54v4.266a20.1,20.1,0,0,1,4.854,2.214L141.1,44.3a2.53,2.53,0,0,1,3.578,0ZM4.38,87.977c3.666-3.853,5.155-4.341,10.084-5.242V3.791C2.954,4.917,4.292,15.564,4.355,25.46c.013,1.326.025,2.027.025,2.352V87.977ZM36.5,33.3H58.6v67.259h-23.7V33.3H36.5Zm4.141,57.013H44.9v2.227H40.637V90.317Zm0-6.205H44.9v2.227H40.637V84.111Zm0-6.281H44.9v2.227H40.637V77.831Zm0-6.268h7.081V73.79H40.637V71.563Zm0-6.268H44.9v2.227H40.637V65.295Zm0-6.281H44.9v2.227H40.637V59.014Zm0-6.268H44.9v2.227H40.637V52.746Zm0-6.268H44.9v2.227H40.637V46.478Zm0-6.218h7.081v2.227H40.637V40.26ZM55.412,36.47H38.085v60.9H55.412V36.47ZM88.191,47.817v52.3H73.553v-52.3h-.063l.5-1.013L80.034,34.38l.613-1.264.638,1.251,6.443,12.423.538,1.038h-.075v-.013ZM75.755,46.391h10.2L81.9,38.584h-2.34l-3.8,7.807ZM18.793,15.126H126.675a2.955,2.955,0,0,1,2.127.888,3,3,0,0,1,.888,2.127v8.745H124.1V20.068H18.793V84.9H18.78a1.83,1.83,0,0,1-1.564,1.814C.777,89.253.051,108.733,16.728,111.523H124.1v-8.182h5.592V114.1a3,3,0,0,1-.888,2.127l-.013.013h0a3,3,0,0,1-2.127.888H16.6c-4.5,0-10.759-3.528-13.362-7.256-2.552-3.628-3.466-8.295-3.2-13.725V25.472C-.036,13.374-.124.3,16.728.013A1.214,1.214,0,0,1,16.941,0a1.847,1.847,0,0,1,1.852,1.852V15.126Zm108.8,38.634a10.434,10.434,0,1,1-10.434,10.434A10.436,10.436,0,0,1,127.588,53.76Z" transform="translate(0)" fill-rule="evenodd"/>
  </g>
</svg>
